<svg width="34" height="34" viewBox="0 0 34 34" fill="none" xmlns="http://www.w3.org/2000/svg">
<path d="M33.3295 12.7636L17.8666 0.321424C17.2929 -0.107141 16.574 -0.107141 16.0694 0.321424L0.537335 12.7636C-0.03639 13.2682 -0.216111 14.236 0.323052 14.7751C1.53962 15.9986 2.77002 14.6438 2.77002 14.6438V32.3947C2.77002 33.1827 3.41978 33.8325 4.20779 33.8325H29.666C30.3848 33.8325 31.0346 33.1827 31.1037 32.4638V14.6507C31.1037 14.6507 32.3479 15.9779 33.5507 14.782C34.1244 14.2014 33.9032 13.2682 33.3295 12.7636ZM28.2213 31.033H5.64556V12.3351L16.9334 3.27299L28.2213 12.3351V31.033Z" fill="#000"/>
<path d="M15.786 14.706V18.9502H11.5418C10.9059 18.9502 10.3943 19.4686 10.3943 20.0977C10.3943 20.7336 10.9128 21.2451 11.5418 21.2451H15.786V25.5584C15.786 26.1944 16.3044 26.7059 16.9334 26.7059C17.5625 26.7059 18.0809 26.1874 18.0809 25.5584V21.2451H22.3251C22.961 21.2451 23.4725 20.7267 23.4725 20.0977C23.4725 19.4617 22.9541 18.9502 22.3251 18.9502H18.0809V14.706C18.0809 14.0701 17.5625 13.5586 16.9334 13.5586C16.3044 13.5586 15.786 14.0701 15.786 14.706Z" fill="#000"/>
</svg>
