<svg width="491" height="491" viewBox="0 0 491 491" fill="none" xmlns="http://www.w3.org/2000/svg">
<g clip-path="url(#clip0)">
<path d="M444.655 469.2V64.7C444.655 53.2 435.255 43.8 423.755 43.8H308.155L286.255 9.4C282.055 3.1 275.855 0 268.555 0H224.755C217.455 0 211.155 3.1 207.055 9.4L184.455 44.8H66.2555C54.7555 44.8 45.3555 54.2 45.3555 65.7V469.2C45.3555 480.7 54.7555 490.1 66.2555 490.1H424.855C436.355 490.1 445.755 480.7 444.655 469.2ZM235.155 40.8H256.055L297.755 106.5H193.455L235.155 40.8ZM403.955 449.4H86.0555V86.6H157.855L139.255 115.8C128.955 139.6 148.655 147.1 155.955 147.1H335.255C363.055 145 358.155 122.1 354.055 115.8L334.755 85.6H404.055V449.4H403.955Z" fill="#000"/>
<path d="M320.555 230.5H170.455C158.955 230.5 149.555 239.9 149.555 251.4C149.555 262.9 158.955 272.3 170.455 272.3H320.555C332.055 272.3 341.455 262.9 341.455 251.4C341.455 239.9 332.055 230.5 320.555 230.5Z" fill="#000"/>
<path d="M320.555 349.4H170.455C158.955 349.4 149.555 358.8 149.555 370.3C149.555 381.8 158.955 391.2 170.455 391.2H320.555C332.055 391.2 341.455 381.8 341.455 370.3C341.455 358.7 332.055 349.4 320.555 349.4Z" fill="#000"/>
</g>
<defs>
<clipPath id="clip0">
<rect width="490.1" height="490.1" fill="white"/>
</clipPath>
</defs>
</svg>
