<svg width="34" height="34" viewBox="0 0 34 34" fill="none" xmlns="http://www.w3.org/2000/svg">
<path d="M7.15389 14.8331C10.2437 14.8331 12.8358 12.9668 13.845 10.3055C14.875 10.271 18.9256 10.271 19.9556 10.3055C20.9648 12.9668 23.55 14.8331 26.6467 14.8331C30.6006 14.8331 33.7664 11.7433 33.7664 8.00374C33.7664 5.27336 32.1144 2.82639 29.5983 1.74806C25.5269 0.46928 14.4326 -1.44544 4.20924 1.74806C1.69314 2.82639 0.0341797 5.27336 0.0341797 8.00374C0.0341797 11.7433 3.20003 14.8331 7.15389 14.8331ZM5.35669 4.26416C13.9971 2.01765 20.6191 2.60519 28.437 4.26416C29.9439 4.91392 30.9531 6.35169 30.9531 7.93461C30.9531 10.1673 29.0107 11.9645 26.6398 11.9645C24.5523 11.9645 22.8311 10.5959 22.4716 8.6535C22.4025 8.00374 21.8219 7.50605 21.179 7.50605C19.7344 7.43692 14.0662 7.43692 12.6216 7.50605C11.9718 7.50605 11.3981 8.01065 11.329 8.6535C10.9695 10.5959 9.24142 11.9645 7.16081 11.9645C4.78987 11.9645 2.8475 10.1673 2.8475 7.93461C2.84059 6.35169 3.84979 4.91392 5.35669 4.26416Z" fill="#000"/>
<path d="M33.801 32.0932C33.801 23.8261 27.0407 17.0658 18.7735 17.0658H15.034C6.76679 17.0658 0.006516 23.8261 0.006516 32.0932C0.006516 32.0932 -0.180117 33.6762 1.44428 33.8213H32.3632C34.0222 33.6623 33.801 32.0932 33.801 32.0932ZM2.87514 31.0149C3.44886 24.7592 8.70225 19.8653 15.027 19.8653H18.7666C25.0914 19.8653 30.3448 24.7523 30.9185 31.0149H2.87514Z" fill="#000"/>
<path d="M13.6791 26.2939H16.2229V28.8791C16.2229 29.2592 16.527 29.5634 16.9072 29.5634C17.2874 29.5634 17.5915 29.2592 17.5915 28.8791V26.2939H20.1353C20.5154 26.2939 20.8196 25.9897 20.8196 25.6095C20.8196 25.2294 20.5154 24.9252 20.1353 24.9252H17.5915V22.3815C17.5915 22.0013 17.2874 21.6971 16.9072 21.6971C16.527 21.6971 16.2229 22.0013 16.2229 22.3815V24.9252H13.6791C13.299 24.9252 12.9948 25.2294 12.9948 25.6095C12.9948 25.9828 13.299 26.2939 13.6791 26.2939Z" fill="#000"/>
</svg>
