<svg width="490" height="490" viewBox="0 0 490 490" fill="none" xmlns="http://www.w3.org/2000/svg">
<g clip-path="url(#clip0)">
<path d="M462.583 289.3V236.5C462.583 198 431.383 166.7 393.883 166.7C356.383 166.7 325.183 197.9 325.183 236.5V368.8C325.183 413.6 289.783 449 247.083 449C204.383 449 168.883 412.5 168.883 368.7V313.6C206.883 304.6 234.483 244.8 234.483 244.8C269.883 186.5 290.783 118.8 294.883 50.1C295.983 32 283.483 0.1 249.083 0.1H241.783C230.283 0.1 220.983 9.5 220.983 20.9C220.983 32.4 230.383 41.7 241.783 41.7H249.083C254.983 41.7 254.283 45.9 254.283 47.9C250.083 110.4 231.383 171.8 199.083 224.9C199.083 224.9 178.283 275.9 146.983 275.9C115.083 275.9 94.8832 223.8 94.8832 223.8C63.6832 170.7 44.8832 109.2 40.6832 46.8C40.8832 43.6 42.2832 41.5 45.8832 41.6H53.1832C64.6832 41.6 73.9832 32.2 73.9832 20.8C73.9832 9.3 64.5832 0 53.1832 0H45.8832C16.8832 0 -1.21676 24.3 0.0832365 48.9C3.88324 118.8 25.1832 186.5 60.5832 244.8C60.5832 244.8 90.2832 307.4 127.283 314.2V368.8C127.283 435.5 180.383 489.6 245.983 489.6C311.583 489.6 364.683 435.4 364.683 368.8V236.5C364.683 220.9 377.183 207.3 392.783 207.3C408.383 207.3 420.883 220.8 420.883 236.5V289.3C404.983 297.2 393.783 313.7 393.783 332.3C393.783 358.3 415.683 380.2 441.683 380.2C467.683 380.2 489.583 358.3 489.583 332.3C489.683 313.7 478.483 297.2 462.583 289.3ZM441.783 339.6C437.583 339.6 434.483 336.5 434.483 332.3C434.483 328.1 437.583 325 441.783 325C445.983 325 449.083 328.1 449.083 332.3C449.083 336.4 445.883 339.6 441.783 339.6Z" fill="#000"/>
</g>
<defs>
<clipPath id="clip0">
<rect width="489.6" height="489.6" fill="white"/>
</clipPath>
</defs>
</svg>
